<svg xmlns="http://www.w3.org/2000/svg" width="109.219" height="17.281" viewBox="0 0 109.219 17.281">
  <defs>
    <style>
      .cls-1 {
        fill: #fff;
        fill-rule: evenodd;
      }
    </style>
  </defs>
  <path id="ТЕХНОМАРТ" class="cls-1" d="M225.421,87.227h3.84v15.12h2.16V87.227h3.84v-1.68h-9.84v1.68Zm13.92,7.2h5.28v-1.68h-5.28v-5.52h6v-1.68h-8.16v16.8h8.16v-1.68h-6v-6.24Zm12.48-2.16-2.64-6.72h-2.16l3.24,8.16-3.6,8.64h2.16l3-7.2,3,7.2h2.16l-3.6-8.64,3.24-8.16h-2.16Zm14.4-6.72v7.44h-5.04v-7.44h-2.16v16.8h2.16v-7.68h5.04v7.68h2.16v-16.8h-2.16Zm8.028,0.168a3.762,3.762,0,0,0-1.62,1.392,7.36,7.36,0,0,0-1.02,2.652,25.375,25.375,0,0,0,0,8.376,7.355,7.355,0,0,0,1.02,2.652,3.759,3.759,0,0,0,1.62,1.392,5.985,5.985,0,0,0,4.344,0,3.77,3.77,0,0,0,1.62-1.392,7.392,7.392,0,0,0,1.02-2.652,25.375,25.375,0,0,0,0-8.376,7.4,7.4,0,0,0-1.02-2.652,3.773,3.773,0,0,0-1.62-1.392A5.988,5.988,0,0,0,274.249,85.715Zm1.044,15.12a2.539,2.539,0,0,1-.96-1.128,8.34,8.34,0,0,1-.66-2.208,25.159,25.159,0,0,1,0-7.1,8.35,8.35,0,0,1,.66-2.208,2.542,2.542,0,0,1,.96-1.128,2.194,2.194,0,0,1,2.256,0,2.555,2.555,0,0,1,.96,1.128,8.387,8.387,0,0,1,.66,2.208,25.159,25.159,0,0,1,0,7.1,8.377,8.377,0,0,1-.66,2.208,2.551,2.551,0,0,1-.96,1.128A2.2,2.2,0,0,1,275.293,100.835Zm17.448-.648,3.48-10.32h0.12l0.72,12.48h2.16l-0.96-16.8h-2.64l-3.912,11.52h-0.1L287.7,85.547h-2.64l-0.96,16.8h2.16l0.72-12.48h0.12l3.48,10.32h2.16Zm16.319-2.16,1.08,4.32h2.16l-4.08-16.8H305.1l-4.08,16.8h2.16l1.08-4.32h4.8Zm-0.36-1.68h-4.08l1.992-8.4h0.1Zm7.92-.6v-8.88h1.68a4.309,4.309,0,0,1,1.4.2,2.04,2.04,0,0,1,.972.708,3.376,3.376,0,0,1,.564,1.368,13.05,13.05,0,0,1,0,4.32,3.378,3.378,0,0,1-.564,1.368,2.039,2.039,0,0,1-.972.708,4.3,4.3,0,0,1-1.4.2h-1.68Zm0,1.44a11.5,11.5,0,0,0,1.152.168,12.255,12.255,0,0,0,1.248.072,6.111,6.111,0,0,0,2.028-.3,3.086,3.086,0,0,0,1.416-1.008,4.718,4.718,0,0,0,.84-1.884,13.079,13.079,0,0,0,.276-2.928,11.991,11.991,0,0,0-.288-2.856,4.268,4.268,0,0,0-.912-1.848,3.466,3.466,0,0,0-1.632-1,8.679,8.679,0,0,0-2.448-.3,17.271,17.271,0,0,0-2,.108,11.33,11.33,0,0,0-1.836.372v16.56h2.16v-5.16Zm8.16-9.96h3.84v15.12h2.16V87.227h3.84v-1.68h-9.84v1.68Z" transform="translate(-225.406 -85.313)"/>
</svg>
